<mxfile host="app.diagrams.net" modified="2023-06-14T14:18:15.517Z" agent="Mozilla/5.0 (X11; Linux x86_64) AppleWebKit/537.36 (KHTML, like Gecko) Chrome/114.0.0.0 Safari/537.36 Edg/114.0.1823.43" etag="rF3hGLjJsTaW4HXoV9oR" version="21.3.8" type="github">
  <diagram name="Page-1" id="e7e014a7-5840-1c2e-5031-d8a46d1fe8dd">
    <mxGraphModel dx="1306" dy="636" grid="1" gridSize="10" guides="1" tooltips="1" connect="1" arrows="1" fold="1" page="1" pageScale="1" pageWidth="1169" pageHeight="826" background="none" math="0" shadow="0">
      <root>
        <mxCell id="0" />
        <mxCell id="1" parent="0" />
        <mxCell id="3" value="School Manaement System" style="swimlane;whiteSpace=wrap" parent="1" vertex="1">
          <mxGeometry x="430" y="90" width="280" height="1400" as="geometry" />
        </mxCell>
        <mxCell id="vLWBK4wdmC8ce3NOExXX-42" value="Enroll" style="ellipse;whiteSpace=wrap;html=1;" vertex="1" parent="3">
          <mxGeometry x="80" y="70" width="120" height="80" as="geometry" />
        </mxCell>
        <mxCell id="vLWBK4wdmC8ce3NOExXX-44" value="Pay Fee" style="ellipse;whiteSpace=wrap;html=1;" vertex="1" parent="3">
          <mxGeometry x="80" y="170" width="120" height="80" as="geometry" />
        </mxCell>
        <mxCell id="vLWBK4wdmC8ce3NOExXX-45" value="View Attendence" style="ellipse;whiteSpace=wrap;html=1;" vertex="1" parent="3">
          <mxGeometry x="80" y="283" width="120" height="80" as="geometry" />
        </mxCell>
        <mxCell id="vLWBK4wdmC8ce3NOExXX-46" value="Manage course" style="ellipse;whiteSpace=wrap;html=1;" vertex="1" parent="3">
          <mxGeometry x="80" y="430" width="120" height="80" as="geometry" />
        </mxCell>
        <mxCell id="vLWBK4wdmC8ce3NOExXX-47" value="Record Attendance" style="ellipse;whiteSpace=wrap;html=1;" vertex="1" parent="3">
          <mxGeometry x="80" y="540" width="120" height="80" as="geometry" />
        </mxCell>
        <mxCell id="vLWBK4wdmC8ce3NOExXX-48" value="Assign Grades" style="ellipse;whiteSpace=wrap;html=1;" vertex="1" parent="3">
          <mxGeometry x="80" y="660" width="120" height="80" as="geometry" />
        </mxCell>
        <mxCell id="vLWBK4wdmC8ce3NOExXX-49" value="Manage Books" style="ellipse;whiteSpace=wrap;html=1;" vertex="1" parent="3">
          <mxGeometry x="80" y="830" width="120" height="80" as="geometry" />
        </mxCell>
        <mxCell id="vLWBK4wdmC8ce3NOExXX-50" value="Lend Books" style="ellipse;whiteSpace=wrap;html=1;" vertex="1" parent="3">
          <mxGeometry x="80" y="940" width="120" height="80" as="geometry" />
        </mxCell>
        <mxCell id="vLWBK4wdmC8ce3NOExXX-56" value="Generate Timetable" style="ellipse;whiteSpace=wrap;html=1;" vertex="1" parent="3">
          <mxGeometry x="90" y="1130" width="120" height="80" as="geometry" />
        </mxCell>
        <mxCell id="vLWBK4wdmC8ce3NOExXX-57" value="Manage Submissions" style="ellipse;whiteSpace=wrap;html=1;" vertex="1" parent="3">
          <mxGeometry x="90" y="1240" width="120" height="80" as="geometry" />
        </mxCell>
        <mxCell id="vLWBK4wdmC8ce3NOExXX-62" value="" style="endArrow=none;html=1;rounded=0;entryX=0;entryY=0.588;entryDx=0;entryDy=0;entryPerimeter=0;exitX=0;exitY=0.5;exitDx=0;exitDy=0;" edge="1" parent="3" source="vLWBK4wdmC8ce3NOExXX-44" target="vLWBK4wdmC8ce3NOExXX-42">
          <mxGeometry width="50" height="50" relative="1" as="geometry">
            <mxPoint x="70" y="290" as="sourcePoint" />
            <mxPoint x="120" y="240" as="targetPoint" />
            <Array as="points">
              <mxPoint x="-90" y="190" />
            </Array>
          </mxGeometry>
        </mxCell>
        <mxCell id="vLWBK4wdmC8ce3NOExXX-63" value="" style="endArrow=none;html=1;rounded=0;exitX=0;exitY=0.5;exitDx=0;exitDy=0;" edge="1" parent="3" source="vLWBK4wdmC8ce3NOExXX-44">
          <mxGeometry width="50" height="50" relative="1" as="geometry">
            <mxPoint x="510" y="300" as="sourcePoint" />
            <mxPoint x="80" y="117" as="targetPoint" />
            <Array as="points">
              <mxPoint x="-90" y="190" />
            </Array>
          </mxGeometry>
        </mxCell>
        <mxCell id="vLWBK4wdmC8ce3NOExXX-78" value="" style="endArrow=none;html=1;rounded=0;" edge="1" parent="3">
          <mxGeometry width="50" height="50" relative="1" as="geometry">
            <mxPoint x="-40" y="1220" as="sourcePoint" />
            <mxPoint x="90" y="1180" as="targetPoint" />
          </mxGeometry>
        </mxCell>
        <mxCell id="vLWBK4wdmC8ce3NOExXX-51" value="Student" style="shape=umlActor;verticalLabelPosition=bottom;verticalAlign=top;html=1;outlineConnect=0;" vertex="1" parent="1">
          <mxGeometry x="300" y="250" width="30" height="60" as="geometry" />
        </mxCell>
        <mxCell id="vLWBK4wdmC8ce3NOExXX-52" value="Teacher" style="shape=umlActor;verticalLabelPosition=bottom;verticalAlign=top;html=1;outlineConnect=0;" vertex="1" parent="1">
          <mxGeometry x="310" y="630" width="30" height="60" as="geometry" />
        </mxCell>
        <mxCell id="vLWBK4wdmC8ce3NOExXX-53" value="Library" style="shape=umlActor;verticalLabelPosition=bottom;verticalAlign=top;html=1;outlineConnect=0;" vertex="1" parent="1">
          <mxGeometry x="310" y="980" width="30" height="60" as="geometry" />
        </mxCell>
        <mxCell id="vLWBK4wdmC8ce3NOExXX-54" value="Student" style="shape=umlActor;verticalLabelPosition=bottom;verticalAlign=top;html=1;outlineConnect=0;" vertex="1" parent="1">
          <mxGeometry x="310" y="1300" width="30" height="60" as="geometry" />
        </mxCell>
        <mxCell id="vLWBK4wdmC8ce3NOExXX-72" value="" style="endArrow=none;html=1;rounded=0;entryX=0;entryY=0.5;entryDx=0;entryDy=0;" edge="1" parent="1" target="vLWBK4wdmC8ce3NOExXX-47">
          <mxGeometry width="50" height="50" relative="1" as="geometry">
            <mxPoint x="380" y="670" as="sourcePoint" />
            <mxPoint x="430" y="620" as="targetPoint" />
          </mxGeometry>
        </mxCell>
        <mxCell id="vLWBK4wdmC8ce3NOExXX-73" value="" style="endArrow=none;html=1;rounded=0;entryX=0.075;entryY=0.138;entryDx=0;entryDy=0;entryPerimeter=0;" edge="1" parent="1" target="vLWBK4wdmC8ce3NOExXX-48">
          <mxGeometry width="50" height="50" relative="1" as="geometry">
            <mxPoint x="380" y="670" as="sourcePoint" />
            <mxPoint x="430" y="700" as="targetPoint" />
          </mxGeometry>
        </mxCell>
        <mxCell id="vLWBK4wdmC8ce3NOExXX-74" value="" style="endArrow=none;html=1;rounded=0;entryX=0;entryY=0;entryDx=0;entryDy=0;" edge="1" parent="1" target="vLWBK4wdmC8ce3NOExXX-45">
          <mxGeometry width="50" height="50" relative="1" as="geometry">
            <mxPoint x="340" y="280" as="sourcePoint" />
            <mxPoint x="420" y="310" as="targetPoint" />
          </mxGeometry>
        </mxCell>
        <mxCell id="vLWBK4wdmC8ce3NOExXX-76" value="" style="endArrow=none;html=1;rounded=0;entryX=0;entryY=0.5;entryDx=0;entryDy=0;" edge="1" parent="1" target="vLWBK4wdmC8ce3NOExXX-50">
          <mxGeometry width="50" height="50" relative="1" as="geometry">
            <mxPoint x="370" y="1020" as="sourcePoint" />
            <mxPoint x="450" y="940" as="targetPoint" />
          </mxGeometry>
        </mxCell>
        <mxCell id="vLWBK4wdmC8ce3NOExXX-68" value="" style="endArrow=none;html=1;rounded=0;" edge="1" parent="1" target="vLWBK4wdmC8ce3NOExXX-46">
          <mxGeometry width="50" height="50" relative="1" as="geometry">
            <mxPoint x="380" y="670" as="sourcePoint" />
            <mxPoint x="460" y="590" as="targetPoint" />
          </mxGeometry>
        </mxCell>
        <mxCell id="vLWBK4wdmC8ce3NOExXX-77" value="" style="endArrow=none;html=1;rounded=0;entryX=0;entryY=0.625;entryDx=0;entryDy=0;entryPerimeter=0;" edge="1" parent="1" target="vLWBK4wdmC8ce3NOExXX-49">
          <mxGeometry width="50" height="50" relative="1" as="geometry">
            <mxPoint x="370" y="1020" as="sourcePoint" />
            <mxPoint x="450" y="940" as="targetPoint" />
          </mxGeometry>
        </mxCell>
        <mxCell id="vLWBK4wdmC8ce3NOExXX-75" value="" style="endArrow=none;html=1;rounded=0;entryX=-0.017;entryY=0.338;entryDx=0;entryDy=0;entryPerimeter=0;" edge="1" parent="1" target="vLWBK4wdmC8ce3NOExXX-57">
          <mxGeometry width="50" height="50" relative="1" as="geometry">
            <mxPoint x="390" y="1310" as="sourcePoint" />
            <mxPoint x="470" y="1230" as="targetPoint" />
          </mxGeometry>
        </mxCell>
      </root>
    </mxGraphModel>
  </diagram>
</mxfile>
